<svg width="48" height="48" viewBox="0 0 48 48" fill="none" xmlns="http://www.w3.org/2000/svg">
<path fill-rule="evenodd" clip-rule="evenodd" d="M17 10C16.4478 10 16 10.4478 16 11V14H11C10.4478 14 10 14.4478 10 15V17C10 17.5522 10.4478 18 11 18H16V21C16 21.5522 16.4478 22 17 22H19C19.5522 22 20 21.5522 20 21V18H37C37.5522 18 38 17.5522 38 17V15C38 14.4478 37.5522 14 37 14H20V11C20 10.4478 19.5522 10 19 10H17ZM10 31C10 30.4478 10.4478 30 11 30H28V27C28 26.4478 28.4478 26 29 26H31C31.5522 26 32 26.4478 32 27V30H37C37.5522 30 38 30.4478 38 31V33C38 33.5522 37.5522 34 37 34H32V37C32 37.5522 31.5522 38 31 38H29C28.4478 38 28 37.5522 28 37V34H11C10.4478 34 10 33.5522 10 33V31Z" fill="white"/>
</svg>
