<svg width="48" height="48" viewBox="0 0 48 48" fill="none" xmlns="http://www.w3.org/2000/svg">
<rect x="6" y="8" width="36" height="32" rx="10" fill="#E82127"/>
<path d="M26 15H23C22.4477 15 22 15.4477 22 16V17.9071C22 17.9689 22.0057 18.0306 22.0171 18.0913L23.3471 25.1843C23.4357 25.6573 23.8487 26 24.3299 26H24.6701C25.1513 26 25.5643 25.6573 25.6529 25.1843L26.9829 18.0913C26.9943 18.0306 27 17.9689 27 17.9071V16C27 15.4477 26.5523 15 26 15Z" fill="white"/>
<path d="M26 28H23C22.4477 28 22 28.4477 22 29V31C22 31.5523 22.4477 32 23 32H26C26.5523 32 27 31.5523 27 31V29C27 28.4477 26.5523 28 26 28Z" fill="white"/>
</svg>
