<svg width="48" height="48" viewBox="0 0 48 48" fill="none" xmlns="http://www.w3.org/2000/svg">
<path fill-rule="evenodd" clip-rule="evenodd" d="M24 10C19.0295 10 15 14.0295 15 19V29C15 33.9705 19.0295 38 24 38C28.9705 38 33 33.9705 33 29V19C33 14.0295 28.9705 10 24 10ZM23.6306 14.325C22.9771 13.7939 22 14.259 22 15.1011V22L19.207 19.207C18.8167 18.8167 18.1833 18.8167 17.793 19.207L17.707 19.293C17.3167 19.6833 17.3167 20.3167 17.707 20.707L21 24L17.707 27.293C17.3167 27.6833 17.3167 28.3167 17.707 28.707L17.793 28.793C18.1833 29.1833 18.8167 29.1833 19.207 28.793L22 26V32.0989C22 32.9041 22.9031 33.3792 23.5667 32.9231L28.9546 29.2188C29.4875 28.8523 29.5378 28.084 29.0571 27.6514L25 24L29.1309 20.2822C29.5874 19.8713 29.5691 19.1499 29.0925 18.7627L23.6306 14.325ZM25 18V21.5L27 19.5L25 18ZM25 30V26.5L27 28.5L25 30Z" fill="white"/>
</svg>
