<svg width="48" height="48" viewBox="0 0 48 48" fill="none" xmlns="http://www.w3.org/2000/svg">
<path fill-rule="evenodd" clip-rule="evenodd" d="M25.5 11C25.5 10.1714 24.8284 9.5 24 9.5C23.1716 9.5 22.5 10.1714 22.5 11V15C22.5 15.8286 23.1716 16.5 24 16.5C24.8284 16.5 25.5 15.8286 25.5 15V11ZM15.8682 13.7471C15.2825 13.1611 14.3328 13.1611 13.7471 13.7471C13.1611 14.3325 13.1611 15.2827 13.7471 15.8682L16.5754 18.6968C17.1611 19.2827 18.1108 19.2827 18.6968 18.6968C19.2825 18.1108 19.2825 17.1611 18.6968 16.5752L15.8682 13.7471ZM34.2532 15.8682C34.8389 15.2827 34.8389 14.3325 34.2532 13.7471C33.6672 13.1611 32.7175 13.1611 32.1318 13.7471L29.3032 16.5752C28.7175 17.1611 28.7175 18.1108 29.3032 18.6968C29.8892 19.2827 30.8389 19.2827 31.4246 18.6968L34.2532 15.8682ZM11 22.5C10.1716 22.5 9.5 23.1714 9.5 24C9.5 24.8286 10.1716 25.5 11 25.5H15C15.8284 25.5 16.5 24.8286 16.5 24C16.5 23.1714 15.8284 22.5 15 22.5H11ZM33 22.5C32.1716 22.5 31.5 23.1714 31.5 24C31.5 24.8286 32.1716 25.5 33 25.5H37C37.8284 25.5 38.5 24.8286 38.5 24C38.5 23.1714 37.8284 22.5 37 22.5H33ZM18.6968 31.4248C19.2825 30.8389 19.2825 29.8892 18.6968 29.3032C18.1108 28.7173 17.1611 28.7173 16.5754 29.3032L13.7471 32.1318C13.1611 32.7173 13.1611 33.6675 13.7471 34.2529C14.3328 34.8389 15.2825 34.8389 15.8682 34.2529L18.6968 31.4248ZM31.4246 29.3032C30.8389 28.7173 29.8892 28.7173 29.3032 29.3032C28.7175 29.8892 28.7175 30.8389 29.3032 31.4248L32.1318 34.2529C32.7175 34.8389 33.6672 34.8389 34.2532 34.2529C34.8389 33.6675 34.8389 32.7173 34.2532 32.1318L31.4246 29.3032ZM25.5 33C25.5 32.1714 24.8284 31.5 24 31.5C23.1716 31.5 22.5 32.1714 22.5 33V37C22.5 37.8286 23.1716 38.5 24 38.5C24.8284 38.5 25.5 37.8286 25.5 37V33ZM27 24C27 25.6567 25.6567 27 24 27C22.3433 27 21 25.6567 21 24C21 22.3433 22.3433 21 24 21C25.6567 21 27 22.3433 27 24ZM30 24C30 27.3135 27.3137 30 24 30C20.6863 30 18 27.3135 18 24C18 20.6865 20.6863 18 24 18C27.3137 18 30 20.6865 30 24Z" fill="white"/>
</svg>
