<svg width="48" height="48" viewBox="0 0 48 48" fill="none" xmlns="http://www.w3.org/2000/svg">
<path fill-rule="evenodd" clip-rule="evenodd" d="M41 24C41 33.3887 33.3889 41 24 41C14.6111 41 7 33.3887 7 24C7 14.6113 14.6111 7 24 7C33.3889 7 41 14.6113 41 24ZM38 24C38 31.7319 31.7319 38 24 38C16.2681 38 10 31.7319 10 24C10 16.2681 16.2681 10 24 10C31.7319 10 38 16.2681 38 24ZM24 35C30.0752 35 35 30.0752 35 24C35 17.9248 30.0752 13 24 13C17.9248 13 13 17.9248 13 24C13 30.0752 17.9248 35 24 35ZM21 25C23.2092 25 25 23.209 25 21C25 18.791 23.2092 17 21 17C18.7908 17 17 18.791 17 21C17 23.209 18.7908 25 21 25ZM30 28.5C30 29.8809 28.8806 31 27.5 31C26.1194 31 25 29.8809 25 28.5C25 27.1191 26.1194 26 27.5 26C28.8806 26 30 27.1191 30 28.5Z" fill="white" fill-opacity="0.4"/>
</svg>
