<svg width="48" height="48" viewBox="0 0 48 48" fill="none" xmlns="http://www.w3.org/2000/svg">
<path fill-rule="evenodd" clip-rule="evenodd" d="M8.5 10.5H11V16.5H12V18.5H11V21.5H9V18.5H3V16.5L8.5 10.5ZM9 16.5V13.5L6 16.5H9ZM40 16.5C40 15.9478 40.4478 15.5 41 15.5H43C43.5522 15.5 44 15.9478 44 16.5V36.5C44 37.0522 43.5522 37.5 43 37.5H41C40.4478 37.5 40 37.0522 40 36.5V16.5ZM34 19.5C34 18.9478 34.4478 18.5 35 18.5H37C37.5522 18.5 38 18.9478 38 19.5V36.5C38 37.0522 37.5522 37.5 37 37.5H35C34.4478 37.5 34 37.0522 34 36.5V19.5ZM29 21.5C28.4478 21.5 28 21.9478 28 22.5V36.5C28 37.0522 28.4478 37.5 29 37.5H31C31.5522 37.5 32 37.0522 32 36.5V22.5C32 21.9478 31.5522 21.5 31 21.5H29ZM22 25.5C22 24.9478 22.4478 24.5 23 24.5H25C25.5522 24.5 26 24.9478 26 25.5V36.5C26 37.0522 25.5522 37.5 25 37.5H23C22.4478 37.5 22 37.0522 22 36.5V25.5ZM17 27.5C16.4478 27.5 16 27.9478 16 28.5V36.5C16 37.0522 16.4478 37.5 17 37.5H19C19.5522 37.5 20 37.0522 20 36.5V28.5C20 27.9478 19.5522 27.5 19 27.5H17ZM22.5 13.5L23.5 12C23.5 12 22 10.5 19.5 10.5C16 10.5 14 13 14 16C14 19 16 21.5 19.5 21.5C22.5 21.5 24 19.5 24 19.5V15.5H20V17.5H22V18.5C22 18.5 21.5 19.5 19.5 19.5C17.5 19.5 16 18 16 16C16 14 17.5 12.5 19.5 12.5C21.4204 12.5 22.5 13.5 22.5 13.5Z" fill="white"/>
</svg>
