<svg width="48" height="48" viewBox="0 0 48 48" fill="none" xmlns="http://www.w3.org/2000/svg">
<g clip-path="url(#clip0_12_174)">
<circle cx="24" cy="24" r="22" stroke="white" stroke-opacity="0.5" stroke-width="4"/>
<path d="M15.5378 22.984C17.2838 23.146 18.6698 23.677 19.6958 24.577C20.7398 25.477 21.2618 26.656 21.2618 28.114C21.2618 29.302 20.9558 30.355 20.3438 31.273C19.7318 32.173 18.8588 32.884 17.7248 33.406C16.5908 33.91 15.2678 34.162 13.7558 34.162C12.4778 34.162 11.2088 33.973 9.94882 33.595C8.70682 33.199 7.64482 32.677 6.76282 32.029L8.19382 29.221C8.94982 29.851 9.78682 30.337 10.7048 30.679C11.6228 31.003 12.5588 31.165 13.5128 31.165C14.8268 31.165 15.8528 30.895 16.5908 30.355C17.3468 29.815 17.7248 29.086 17.7248 28.168C17.7248 27.232 17.3558 26.521 16.6178 26.035C15.8798 25.531 14.8268 25.279 13.4588 25.279H10.5968V23.092L15.6728 18.178H7.70782L7.68082 15.1H20.3168V17.341L14.5388 22.876L15.5378 22.984ZM32.0287 14.938C34.6387 14.938 36.6457 15.766 38.0497 17.422C39.4537 19.078 40.1557 21.454 40.1557 24.55C40.1557 27.628 39.4537 29.995 38.0497 31.651C36.6457 33.307 34.6387 34.135 32.0287 34.135C29.4187 34.135 27.4117 33.307 26.0077 31.651C24.6037 29.995 23.9017 27.628 23.9017 24.55C23.9017 21.454 24.6037 19.078 26.0077 17.422C27.4117 15.766 29.4187 14.938 32.0287 14.938ZM32.0287 17.8C30.5347 17.8 29.4277 18.349 28.7077 19.447C27.9877 20.527 27.6277 22.228 27.6277 24.55C27.6277 26.854 27.9877 28.555 28.7077 29.653C29.4277 30.751 30.5347 31.3 32.0287 31.3C33.5227 31.3 34.6297 30.751 35.3497 29.653C36.0697 28.555 36.4297 26.854 36.4297 24.55C36.4297 22.228 36.0697 20.527 35.3497 19.447C34.6297 18.349 33.5227 17.8 32.0287 17.8Z" fill="white" fill-opacity="0.5"/>
</g>
<defs>
<clipPath id="clip0_12_174">
<rect width="48" height="48" fill="white"/>
</clipPath>
</defs>
</svg>
