<svg width="48" height="48" viewBox="0 0 48 48" fill="none" xmlns="http://www.w3.org/2000/svg">
<path d="M45 29.5C45 34.3191 43.1574 38.7078 40.1383 42L36 38.0133M45 29.5C45 24.3501 42.8957 19.6916 39.5 16.3376M45 29.5H40M8 29.5C8 34.1235 9.69608 38.3509 12.5 41.5938L16.5 37.8522M8 29.5C8 24.3501 10.1043 19.6916 13.5 16.3376C16.8412 13.0373 21.4327 11 26.5 11M8 29.5H13M26.5 11C31.5673 11 36.1588 13.0373 39.5 16.3376M26.5 11V15M39.5 16.3376L36.3158 19.3161M26.5 29L18 20.5" stroke="#007BE4" stroke-width="3" stroke-linecap="round" stroke-linejoin="round"/>
<path fill-rule="evenodd" clip-rule="evenodd" d="M1 6.12134L4.5 9.62134L3.06055 11.0605L10.5605 13.5605L8.06055 6.06055L6.62134 7.5L3.12134 4L1 6.12134Z" fill="#007BE4"/>
</svg>
