<svg width="52" height="48" viewBox="0 0 52 48" fill="none" xmlns="http://www.w3.org/2000/svg">
<g filter="url(#filter0_d_25_678)">
<path fill-rule="evenodd" clip-rule="evenodd" d="M11.0396 14.2771L8.64697 15.7324L15.5239 29.8044H16.4146V28.3848C16.4243 27.7036 16.6104 27.0129 16.811 26.468C16.8745 26.2969 16.9424 26.1267 17.0098 25.959L17.0317 25.9041L17.0352 25.8962L17.0469 25.8672L17.0557 25.8452C17.1523 25.6072 17.2466 25.375 17.3242 25.1538H15.5972L18.4346 19.3474L21.272 25.1538H19.4126C19.3247 25.6626 19.1284 26.1392 18.9326 26.6145L18.9175 26.6514C18.8428 26.833 18.7686 27.0149 18.7007 27.1985C18.5269 27.6672 18.4248 27.9944 18.4346 28.3833V29.8044H24.4946V28.406C24.5044 27.7249 24.6904 27.0342 24.8911 26.4893C24.9546 26.3181 25.0225 26.1479 25.0898 25.9802L25.1118 25.9253L25.1152 25.9175L25.127 25.8884L25.1357 25.8665C25.2324 25.6284 25.3267 25.3962 25.4043 25.175H23.6772L26.5146 19.3687L29.3521 25.175H27.4927C27.4048 25.6838 27.2085 26.1604 27.0127 26.6357L26.9976 26.6726C26.9229 26.8542 26.8486 27.0361 26.7808 27.2197C26.6069 27.6885 26.5049 28.0156 26.5146 28.4045V29.8044H32.0703V28.3848C32.0801 27.7036 32.2661 27.0129 32.4668 26.468C32.5371 26.2783 32.6133 26.0896 32.6875 25.9041L32.6909 25.8962L32.7026 25.8672L32.7114 25.8452C32.8081 25.6072 32.9023 25.375 32.98 25.1538H31.2529L34.0903 19.3474L36.9277 25.1538H35.0684C34.9805 25.6626 34.7842 26.1392 34.5884 26.6145L34.5732 26.6514C34.4985 26.833 34.4243 27.0149 34.3564 27.1985C34.1826 27.6672 34.0806 27.9944 34.0903 28.3833V29.8044H36.9839L43.396 15.7456L40.9819 14.2771C31.7549 8.66382 20.2666 8.66382 11.0396 14.2771ZM42.0146 12.5002L45.2144 14.447L46 14.9248L45.6133 15.7725L38.5425 31.2749L38.2705 31.8713H37.627H36.1787C36.4238 32.6038 36.6167 33.4966 36.6167 34.4556C36.6152 35.5405 36.4697 36.989 36.0645 38.3193C35.6484 39.6675 34.9243 41.0505 33.687 42L32.4751 40.3464C33.2578 39.7456 33.7969 38.8035 34.1382 37.697C34.4907 36.5728 34.5977 35.4375 34.5962 34.4556C34.5962 33.4131 34.2729 32.4551 34.0024 31.8713H28.0981C28.3433 32.6038 28.5361 33.4966 28.5361 34.4556C28.5347 35.5405 28.3892 36.989 27.9839 38.3193C27.5679 39.6675 26.8438 41.0505 25.6064 42L24.3945 40.3464C25.1772 39.7456 25.7163 38.8035 26.0576 37.697C26.4102 36.5728 26.5171 35.4375 26.5156 34.4556C26.5156 33.4131 26.1924 32.4551 25.9219 31.8713H19.5117C19.7568 32.6038 19.9497 33.4966 19.9497 34.4556C19.9482 35.5405 19.8027 36.989 19.3975 38.3193C18.9814 39.6675 18.2573 41.0505 17.02 42L15.8081 40.3464C16.5908 39.7456 17.1299 38.8035 17.4712 37.697C17.8237 36.5728 17.9307 35.4375 17.9292 34.4556C17.9292 33.4131 17.606 32.4551 17.3354 31.8713H14.8994H14.2749L13.9961 31.3L6.41992 15.7974L6 14.938L6.80713 14.447L9.83496 12.605L10.0068 12.5002C19.8701 6.5 32.1514 6.5 42.0146 12.5002Z" fill="#007BE4"/>
</g>
<defs>
<filter id="filter0_d_25_678" x="-4" y="-6" width="60" height="60" filterUnits="userSpaceOnUse" color-interpolation-filters="sRGB">
<feFlood flood-opacity="0" result="BackgroundImageFix"/>
<feColorMatrix in="SourceAlpha" type="matrix" values="0 0 0 0 0 0 0 0 0 0 0 0 0 0 0 0 0 0 127 0" result="hardAlpha"/>
<feOffset/>
<feGaussianBlur stdDeviation="3"/>
<feColorMatrix type="matrix" values="0 0 0 0 0.392157 0 0 0 0 0.823529 0 0 0 0 1 0 0 0 1 0"/>
<feBlend mode="normal" in2="BackgroundImageFix" result="effect1_dropShadow_25_678"/>
<feBlend mode="normal" in="SourceGraphic" in2="effect1_dropShadow_25_678" result="shape"/>
</filter>
</defs>
</svg>
