<svg width="48" height="48" viewBox="0 0 48 48" fill="none" xmlns="http://www.w3.org/2000/svg">
<path fill-rule="evenodd" clip-rule="evenodd" d="M24.7505 42.0771C27.6558 38.458 38 25.1169 38 18.6411C38 11.1072 31.7319 5 24 5C16.2681 5 10 11.1072 10 18.6411C10 25.1169 20.3442 38.458 23.2495 42.0771C23.6406 42.5645 24.3594 42.5645 24.7505 42.0771ZM24 25C27.3135 25 30 22.3137 30 19C30 15.6863 27.3135 13 24 13C20.6865 13 18 15.6863 18 19C18 22.3137 20.6865 25 24 25Z" fill="white" fill-opacity="0.4"/>
</svg>
