<svg width="48" height="48" viewBox="0 0 48 48" fill="none" xmlns="http://www.w3.org/2000/svg">
<path fill-rule="evenodd" clip-rule="evenodd" d="M3 9.5C3 8.67163 3.67139 8 4.5 8H43.5C44.3286 8 45 8.67163 45 9.5C45 10.3284 44.3286 11 43.5 11H4.5C3.67139 11 3 10.3284 3 9.5ZM9 15.5C9 14.6716 9.67139 14 10.5 14H37.5C38.3286 14 39 14.6716 39 15.5C39 16.3284 38.3286 17 37.5 17H10.5C9.67139 17 9 16.3284 9 15.5ZM18.5 20C17.6714 20 17 20.6716 17 21.5C17 22.3284 17.6714 23 18.5 23H29.5C30.3286 23 31 22.3284 31 21.5C31 20.6716 30.3286 20 29.5 20H18.5Z" fill="white" fill-opacity="0.4"/>
</svg>
