<svg width="150" height="116" viewBox="0 0 150 116" fill="none" xmlns="http://www.w3.org/2000/svg">
<path d="M82 18.5L75 11.5L68 18.5" stroke="white" stroke-width="3" stroke-linecap="round" stroke-linejoin="round"/>
<path d="M68 97.5L75 104.5L82 97.5" stroke="white" stroke-width="3" stroke-linecap="round" stroke-linejoin="round"/>
<path d="M36.3029 76V74.2L51.1029 59.5C52.5029 58.1 53.5529 56.8833 54.2529 55.85C54.9529 54.7833 55.4196 53.8 55.6529 52.9C55.9196 52 56.0529 51.1167 56.0529 50.25C56.0529 48.05 55.3029 46.3167 53.8029 45.05C52.3029 43.75 50.1029 43.1 47.2029 43.1C45.0029 43.1 43.0696 43.4333 41.4029 44.1C39.7696 44.7667 38.3529 45.7833 37.1529 47.15L35.3529 45.55C36.6863 44.0167 38.3696 42.8333 40.4029 42C42.4696 41.1667 44.8029 40.75 47.4029 40.75C49.7029 40.75 51.6863 41.1333 53.3529 41.9C55.0529 42.6333 56.3529 43.7 57.2529 45.1C58.1863 46.4667 58.6529 48.1 58.6529 50C58.6529 51.1333 58.4863 52.25 58.1529 53.35C57.8529 54.4167 57.2863 55.55 56.4529 56.75C55.6529 57.95 54.4863 59.3167 52.9529 60.85L39.0529 74.7L38.2029 73.7H60.3529V76H36.3029ZM78.7303 76.25C76.0636 76.25 73.6969 75.5333 71.6303 74.1C69.5636 72.6667 67.9469 70.6333 66.7803 68C65.6136 65.3333 65.0303 62.1667 65.0303 58.5C65.0303 54.8333 65.6136 51.6833 66.7803 49.05C67.9469 46.3833 69.5636 44.3333 71.6303 42.9C73.6969 41.4667 76.0636 40.75 78.7303 40.75C81.4303 40.75 83.7969 41.4667 85.8303 42.9C87.8969 44.3333 89.5136 46.3833 90.6803 49.05C91.8469 51.6833 92.4303 54.8333 92.4303 58.5C92.4303 62.1667 91.8469 65.3333 90.6803 68C89.5136 70.6333 87.8969 72.6667 85.8303 74.1C83.7969 75.5333 81.4303 76.25 78.7303 76.25ZM78.7303 73.9C80.9636 73.9 82.9136 73.3 84.5803 72.1C86.2469 70.8667 87.5469 69.1 88.4803 66.8C89.4136 64.5 89.8803 61.7333 89.8803 58.5C89.8803 55.2333 89.4136 52.4667 88.4803 50.2C87.5469 47.9 86.2469 46.15 84.5803 44.95C82.9136 43.7167 80.9636 43.1 78.7303 43.1C76.5303 43.1 74.5803 43.7167 72.8803 44.95C71.2136 46.15 69.9136 47.9 68.9803 50.2C68.0469 52.4667 67.5803 55.2333 67.5803 58.5C67.5803 61.7333 68.0469 64.5 68.9803 66.8C69.9136 69.1 71.2136 70.8667 72.8803 72.1C74.5803 73.3 76.5303 73.9 78.7303 73.9Z" fill="white"/>
<path d="M105.44 54.55C103.84 54.55 102.39 54.2167 101.09 53.55C99.8238 52.85 98.8238 51.9 98.0904 50.7C97.3904 49.5 97.0404 48.15 97.0404 46.65C97.0404 45.0833 97.3904 43.7167 98.0904 42.55C98.8238 41.35 99.8238 40.4167 101.09 39.75C102.39 39.0833 103.84 38.75 105.44 38.75C107.074 38.75 108.524 39.0833 109.79 39.75C111.09 40.4167 112.09 41.35 112.79 42.55C113.524 43.7167 113.89 45.0833 113.89 46.65C113.89 48.15 113.524 49.5 112.79 50.7C112.09 51.9 111.09 52.85 109.79 53.55C108.524 54.2167 107.074 54.55 105.44 54.55ZM105.44 52.85C107.34 52.85 108.907 52.2833 110.14 51.15C111.374 49.9833 111.99 48.4833 111.99 46.65C111.99 44.7833 111.374 43.2833 110.14 42.15C108.907 40.9833 107.34 40.4 105.44 40.4C103.574 40.4 102.024 40.9833 100.79 42.15C99.5571 43.2833 98.9404 44.7833 98.9404 46.65C98.9404 48.4833 99.5571 49.9833 100.79 51.15C102.024 52.2833 103.574 52.85 105.44 52.85Z" fill="white" fill-opacity="0.4"/>
</svg>
