<svg width="48" height="48" viewBox="0 0 48 48" fill="none" xmlns="http://www.w3.org/2000/svg">
<path fill-rule="evenodd" clip-rule="evenodd" d="M16.7175 17.2825C16.327 17.673 16.327 18.3062 16.7175 18.6967L22.0208 24L16.7175 29.3033C16.327 29.6938 16.327 30.327 16.7175 30.7175L17.4246 31.4246C17.8151 31.8151 18.4483 31.8151 18.8388 31.4246L24.1421 26.1213L29.4454 31.4246C29.8359 31.8151 30.4692 31.8151 30.8596 31.4246L31.5668 30.7175C31.9573 30.327 31.9573 29.6938 31.5668 29.3033L26.2635 24L31.5668 18.6967C31.9573 18.3062 31.9573 17.673 31.5668 17.2825L30.8596 16.5754C30.4692 16.1849 29.8359 16.1849 29.4454 16.5754L24.1421 21.8787L18.8388 16.5754C18.4483 16.1849 17.8151 16.1849 17.4246 16.5754L16.7175 17.2825Z" fill="white" fill-opacity="0.6"/>
</svg>
