<svg width="48" height="48" viewBox="0 0 48 48" fill="none" xmlns="http://www.w3.org/2000/svg">
<path fill-rule="evenodd" clip-rule="evenodd" d="M24.8995 15.3C24.375 14.9064 23.6553 14.8994 23.1231 15.2827L10.6231 24.2827C9.95073 24.7668 9.79839 25.7041 10.2823 26.3764C10.7662 27.0488 11.7037 27.2014 12.376 26.7172L23.9815 18.3613L35.0997 26.6999C35.7623 27.197 36.7027 27.0627 37.1998 26.3999C37.6968 25.7373 37.5621 24.7971 36.8995 24.3L24.8995 15.3ZM11.0005 29.9999C10.4483 29.9999 10.0005 30.4477 10.0005 31V32C10.0005 32.5522 10.4483 33 11.0005 33H37.0005C37.5528 33 38.0005 32.5522 38.0005 32V31C38.0005 30.4477 37.5528 29.9999 37.0005 29.9999H11.0005Z" fill="#FAF6F6"/>
</svg>
