<svg width="48" height="48" viewBox="0 0 48 48" fill="none" xmlns="http://www.w3.org/2000/svg">
<path d="M6.54217 13C6.54217 20.5 19.6988 24.5 19.6988 24.5C19.6988 24.5 17.6747 27 15.1446 27C12.6145 27 11.6024 25 8.56627 25C5.53012 25 3 26.5 3 30C3 33.5 5.53012 41 13.1205 41C20.7108 41 24.759 29 24.759 29C24.759 29 27.2892 30.5 27.2892 33C27.2892 35.5 25.2651 36.5 25.2651 39.5C25.2651 42.5 26.7831 45 30.3253 45C33.8675 45 41.4578 42.5 41.4578 35C41.4578 27.5 28.8072 23.5 28.8072 23.5C28.8072 23.5 30.3253 21 32.8554 21C35.3855 21 36.3976 23 39.4337 23C42.4699 23 45 21.5 45 18C45 14.5 42.4699 7 34.8795 7C27.2892 7 23.241 19 23.241 19C23.241 19 20.7108 17.5 20.7108 15C20.7108 12.5 22.7349 11.5 22.7349 8.5C22.7349 5.5 21.2169 3 17.6747 3C14.1325 3 6.54217 5.5 6.54217 13Z" fill="#FFFBFB"/>
</svg>
