<svg width="40" height="40" viewBox="0 0 40 40" fill="none" xmlns="http://www.w3.org/2000/svg">
<path fill-rule="evenodd" clip-rule="evenodd" d="M17 3C17 1.34326 18.3438 0 20 0C21.6562 0 23 1.34326 23 3V5.2998C24.916 5.68848 26.6973 6.44189 28.2715 7.48438L29.8984 5.85791C31.0703 4.68652 32.9688 4.68652 34.1406 5.85791C35.3125 7.0293 35.3125 8.9292 34.1406 10.1006L32.5137 11.7275C33.5566 13.3022 34.3105 15.0845 34.6992 17H37C38.6562 17 40 18.3433 40 20C40 21.6567 38.6562 23 37 23H34.6992C34.3105 24.915 33.5586 26.6978 32.5156 28.272L34.1426 29.8999C35.3145 31.0713 35.3145 32.9707 34.1426 34.1421C32.9707 35.314 31.0703 35.314 29.9004 34.1421L28.2715 32.5151C26.6973 33.5581 24.916 34.3115 23 34.7002V37C23 38.6567 21.6562 40 20 40C18.3438 40 17 38.6567 17 37V34.7002C15.084 34.3115 13.3008 33.5576 11.7266 32.5146L10.0996 34.1426C8.92773 35.314 7.0293 35.314 5.85742 34.1426C4.68555 32.9707 4.68555 31.0713 5.85742 29.8999L7.48438 28.272C6.44141 26.6978 5.68945 24.915 5.30078 23H3C1.34375 23 0 21.6567 0 20C0 18.3433 1.34375 17 3 17H5.30078C5.68945 15.085 6.44336 13.3022 7.48633 11.7275L5.85742 10.1006C4.6875 8.92871 4.6875 7.0293 5.85742 5.85791C7.0293 4.68652 8.92969 4.68652 10.1016 5.85791L11.7285 7.48438C13.3027 6.44189 15.084 5.68848 17 5.2998V3ZM20 27C23.8652 27 27 23.8662 27 20C27 16.1338 23.8652 13 20 13C16.1348 13 13 16.1338 13 20C13 23.8662 16.1348 27 20 27Z" fill="black" fill-opacity="0.4"/>
</svg>
