<svg width="48" height="48" viewBox="0 0 48 48" fill="none" xmlns="http://www.w3.org/2000/svg">
<path fill-rule="evenodd" clip-rule="evenodd" d="M36 11H12C11.4478 11 11 11.4477 11 12V16.126C11.3198 16.0438 11.6548 16 12 16H36C36.3452 16 36.6802 16.0438 37 16.126V12C37 11.4477 36.5522 11 36 11ZM11 26V20C11 19.4477 11.4478 19 12 19H36C36.5522 19 37 19.4477 37 20V26C37 26.5523 36.5522 27 36 27H12C11.4478 27 11 26.5523 11 26ZM8 12V20V26C8 28.2092 9.79102 30 12 30H36C38.209 30 40 28.2092 40 26V20V12C40 9.79083 38.209 8 36 8H12C9.79102 8 8 9.79083 8 12ZM18.9604 34.8477C18.3237 34.3173 17.3779 34.4033 16.8477 35.0397C16.3174 35.6761 16.4033 36.622 17.0396 37.1523L23.0396 42.1523C23.5962 42.6159 24.4038 42.6159 24.9604 42.1523L30.9604 37.1523C31.5967 36.622 31.6826 35.6761 31.1523 35.0397C30.6221 34.4033 29.6763 34.3173 29.0396 34.8477L24 39.0474L18.9604 34.8477Z" fill="white"/>
</svg>
