<svg width="48" height="48" viewBox="0 0 48 48" fill="none" xmlns="http://www.w3.org/2000/svg">
<g filter="url(#filter0_d_25_734)">
<g filter="url(#filter1_d_25_734)">
<path fill-rule="evenodd" clip-rule="evenodd" d="M8 10H40V28.0706H32.3091V25.7793C32.2993 25.4016 32.4004 25.084 32.5723 24.6292C32.644 24.4392 32.7227 24.251 32.8018 24.0627C32.9956 23.6013 33.1899 23.1387 33.2769 22.6443H35.1182L32.3091 17.0083L29.5 22.6443H31.21C31.1328 22.8594 31.0396 23.085 30.9438 23.3162C30.8618 23.5144 30.7783 23.7166 30.7017 23.9199C30.5029 24.449 30.3188 25.1194 30.3091 25.7805V28.0706H24.3091V25.7793C24.2993 25.4016 24.4004 25.084 24.5723 24.6292C24.644 24.4392 24.7227 24.251 24.8018 24.0627C24.9956 23.6013 25.1899 23.1387 25.2769 22.6443H27.1182L24.3091 17.0083L21.5 22.6443H23.21C23.1328 22.8594 23.0396 23.085 22.9438 23.3162C22.8618 23.5144 22.7783 23.7166 22.7017 23.9199C22.5029 24.449 22.3188 25.1194 22.3091 25.7805V28.0706H16.3101V25.7793C16.3003 25.4016 16.4014 25.084 16.5732 24.6292C16.645 24.4392 16.7236 24.251 16.8027 24.0627C16.9966 23.6013 17.1909 23.1387 17.2778 22.6443H19.1191L16.3101 17.0083L13.501 22.6443H15.2109C15.1338 22.8594 15.0405 23.085 14.9448 23.3162C14.8628 23.5144 14.7793 23.7166 14.7026 23.9199C14.5039 24.449 14.3198 25.1194 14.3101 25.7805V28.0706H8V10ZM6 10C6 8.89551 6.89551 8 8 8H40C41.1045 8 42 8.89551 42 10V28.0706C42 29.175 41.1045 30.0706 40 30.0706H34.8423C35.1011 30.7988 35.3101 31.7026 35.3101 32.6765C35.3086 33.7297 35.1646 35.1357 34.7637 36.4272C34.3516 37.7358 33.6348 39.0784 32.4102 40L31.21 38.3948C31.9849 37.8118 32.5181 36.8972 32.8564 35.823C33.2056 34.7317 33.311 33.6299 33.3101 32.6765C33.3101 31.6042 32.9507 30.6238 32.6748 30.0706H26.8423C27.1011 30.7988 27.3101 31.7026 27.3101 32.6765C27.3086 33.7297 27.1646 35.1357 26.7637 36.4272C26.3516 37.7358 25.6348 39.0784 24.4102 40L23.21 38.3948C23.9849 37.8118 24.5181 36.8972 24.8564 35.823C25.2056 34.7317 25.311 33.6299 25.3101 32.6765C25.3101 31.6042 24.9507 30.6238 24.6748 30.0706H18.3423C18.6011 30.7988 18.8101 31.7026 18.8101 32.6765C18.8086 33.7297 18.6646 35.1357 18.2637 36.4272C17.8516 37.7358 17.1348 39.0784 15.9102 40L14.71 38.3948C15.4849 37.8118 16.0181 36.8972 16.3564 35.823C16.7056 34.7317 16.811 33.6299 16.8101 32.6765C16.8101 31.6042 16.4507 30.6238 16.1748 30.0706H8C6.89551 30.0706 6 29.175 6 28.0706V10Z" fill="#D0021B"/>
</g>
</g>
<defs>
<filter id="filter0_d_25_734" x="-6" y="-6" width="60" height="60" filterUnits="userSpaceOnUse" color-interpolation-filters="sRGB">
<feFlood flood-opacity="0" result="BackgroundImageFix"/>
<feColorMatrix in="SourceAlpha" type="matrix" values="0 0 0 0 0 0 0 0 0 0 0 0 0 0 0 0 0 0 127 0" result="hardAlpha"/>
<feOffset/>
<feGaussianBlur stdDeviation="3"/>
<feColorMatrix type="matrix" values="0 0 0 0 0.815686 0 0 0 0 0.00784314 0 0 0 0 0.105882 0 0 0 0.5 0"/>
<feBlend mode="normal" in2="BackgroundImageFix" result="effect1_dropShadow_25_734"/>
<feBlend mode="normal" in="SourceGraphic" in2="effect1_dropShadow_25_734" result="shape"/>
</filter>
<filter id="filter1_d_25_734" x="0" y="2" width="48" height="44" filterUnits="userSpaceOnUse" color-interpolation-filters="sRGB">
<feFlood flood-opacity="0" result="BackgroundImageFix"/>
<feColorMatrix in="SourceAlpha" type="matrix" values="0 0 0 0 0 0 0 0 0 0 0 0 0 0 0 0 0 0 127 0" result="hardAlpha"/>
<feOffset/>
<feGaussianBlur stdDeviation="3"/>
<feColorMatrix type="matrix" values="0 0 0 0 0.815686 0 0 0 0 0.00784314 0 0 0 0 0.105882 0 0 0 1 0"/>
<feBlend mode="normal" in2="BackgroundImageFix" result="effect1_dropShadow_25_734"/>
<feBlend mode="normal" in="SourceGraphic" in2="effect1_dropShadow_25_734" result="shape"/>
</filter>
</defs>
</svg>
