<svg width="48" height="48" viewBox="0 0 48 48" fill="none" xmlns="http://www.w3.org/2000/svg">
<path fill-rule="evenodd" clip-rule="evenodd" d="M16 19C16 14.5815 19.5815 11 24 11C28.4185 11 32 14.5815 32 19C32 19.3755 31.8345 20.2583 31.311 21.6738C30.8081 23.043 30.1543 24.4414 29.4355 25.8501C28.8262 27.0479 28.229 28.1255 27.7266 29H20.2734C19.771 28.1255 19.1738 27.0479 18.5645 25.8501C17.8457 24.4414 17.1919 23.043 16.689 21.6738C16.1655 20.2583 16 19.3755 16 19ZM36 19C36 23.4419 30 33 30 33H18C18 33 12 23.4419 12 19C12 12.3726 17.3726 7 24 7C30.6274 7 36 12.3726 36 19ZM18 36V37.146C18 38.2822 18.6421 39.3208 19.6582 39.8291L21.1553 40.5776C21.7109 40.8555 22.3232 41 22.9443 41H25.0557C25.6768 41 26.2891 40.8555 26.8447 40.5776L28.3418 39.8291C29.3579 39.3208 30 38.2822 30 37.146V36C30 35.4478 29.5522 35 29 35H19C18.4478 35 18 35.4478 18 36Z" fill="white"/>
</svg>
