<svg width="48" height="48" viewBox="0 0 48 48" fill="none" xmlns="http://www.w3.org/2000/svg">
<path fill-rule="evenodd" clip-rule="evenodd" d="M24 5C20.6863 5 18 7.68652 18 11V25C18 28.3135 20.6863 31 24 31C27.3137 31 30 28.3135 30 25V11C30 7.68652 27.3137 5 24 5ZM16 23C16 21.8955 15.1045 21 14 21C12.8955 21 12 21.8955 12 23V25C12 30.9458 16.3245 35.8818 22 36.834V39H16C14.8955 39 14 39.8955 14 41C14 42.1045 14.8955 43 16 43H24H32C33.1045 43 34 42.1045 34 41C34 39.8955 33.1045 39 32 39H26V36.834C31.6755 35.8818 36 30.9458 36 25V23C36 21.8955 35.1045 21 34 21C32.8955 21 32 21.8955 32 23V25C32 29.4185 28.4182 33 24 33C19.5818 33 16 29.4185 16 25V23Z" fill="white" fill-opacity="0.4"/>
</svg>
