<svg width="48" height="48" viewBox="0 0 48 48" fill="none" xmlns="http://www.w3.org/2000/svg">
<path fill-rule="evenodd" clip-rule="evenodd" d="M36 12C34.8955 12 34 12.8955 34 14V22H30L27.9709 17.9414C27.1162 16.2324 25.1716 15.3662 23.3293 15.8745L18.3884 17.2378C14.375 18.3447 11.135 21.3066 9.6731 25.2051L9.37549 25.9985C9.1272 26.6606 9 27.3618 9 28.0688C9 30.2397 10.7598 32 12.9309 32H24C26.3562 32 29 29.9253 29 28H31V28.5C31 28.7759 31.2239 29 31.5 29H34V34C34 35.1045 34.8955 36 36 36C37.1045 36 38 35.1045 38 34V14C38 12.8955 37.1045 12 36 12Z" fill="#000000"/>
</svg>
