<svg width="48" height="48" viewBox="0 0 48 48" fill="none" xmlns="http://www.w3.org/2000/svg">
<path fill-rule="evenodd" clip-rule="evenodd" d="M38.0435 36.5H37.3042C36.0796 36.5 35.0869 35.5125 35.0869 34.2942H12.9131C12.9131 35.5125 11.9204 36.5 10.6958 36.5H9.95654C8.73193 36.5 7.73926 35.5125 7.73926 34.2942V24.3569C7.73926 23.1868 8.20654 22.0647 9.03809 21.2373L9.95654 20.3235H8.4585C7.65283 20.3235 7 19.6741 7 18.8728C7 18.429 7.30371 18.0422 7.73633 17.9346L9.03809 17.6108C9.50439 17.4946 9.95654 17.8457 9.95654 18.3242V19.5881H10.6958L12.022 14.751C12.5479 12.8315 14.3003 11.5 16.3003 11.5H31.6997C33.6997 11.5 35.4521 12.8315 35.978 14.751L37.3042 19.5881H38.0435V18.3242C38.0435 17.8457 38.4956 17.4946 38.9619 17.6108L40.2637 17.9346C40.6963 18.0422 41 18.429 41 18.8728C41 19.6741 40.3472 20.3235 39.5415 20.3235H38.0435L38.9619 21.2373C39.7935 22.0647 40.2607 23.1868 40.2607 24.3569V34.2942C40.2607 35.5125 39.2681 36.5 38.0435 36.5ZM11.5205 19.3049L12.7041 15.3794C13.2671 13.5132 14.9937 12.2354 16.9517 12.2354H31.1206C33.0791 12.2354 34.8057 13.5132 35.3687 15.3794L36.5522 19.3049C36.5996 19.4626 36.5127 19.6296 36.3555 19.6819C35.0737 20.1069 33.7314 20.3235 32.3804 20.3235H15.6924C14.3408 20.3235 12.999 20.1069 11.7173 19.6819C11.5601 19.6296 11.4727 19.4626 11.5205 19.3049ZM15.5 24.2209C13.582 23.4294 12.5459 22.5 11.312 21.2954C10.9878 20.9788 10.4565 21.0237 10.1929 21.3914L9.50879 22.3438C9.12744 22.875 9.18799 23.603 9.65234 24.0647C10.3257 24.7351 11.2168 25.146 12.166 25.2246L14.1978 25.3931C14.7734 25.4409 15.3291 25.1738 15.6494 24.696C15.7622 24.5276 15.688 24.2986 15.5 24.2209ZM32.374 24.2209C34.2925 23.4294 35.3286 22.5 36.5625 21.2952C36.8867 20.9788 37.418 21.0237 37.6816 21.3914L38.3657 22.3435C38.7471 22.875 38.6865 23.603 38.2222 24.0647C37.5488 24.7349 36.6577 25.146 35.7085 25.2246L33.6768 25.3931C33.1011 25.4407 32.5454 25.1738 32.2251 24.6958C32.1123 24.5276 32.1865 24.2983 32.374 24.2209ZM15.6528 31.5684C15.7915 31.4304 15.9795 31.353 16.1758 31.353H31.8242C32.02 31.353 32.208 31.4304 32.3467 31.5684L32.9775 32.196C33.2104 32.4275 33.0454 32.8237 32.7163 32.8237H15.2832C14.9541 32.8237 14.7891 32.4275 15.022 32.196L15.6528 31.5684Z" fill="white"/>
</svg>
