<svg width="48" height="48" viewBox="0 0 48 48" fill="none" xmlns="http://www.w3.org/2000/svg">
<path fill-rule="evenodd" clip-rule="evenodd" d="M43 41H42C40.3433 41 39 39.6567 39 38H12C10.8286 38 9.8208 38.8142 8.83887 39.6079C8.43164 39.9368 8.0293 40.2622 7.62109 40.5247C7.15381 40.8254 6.59717 41 6 41H5C3.34326 41 2 39.6567 2 38V24.4854C2 22.894 2.63232 21.3679 3.75732 20.2427L5 19H2.97314C1.8833 19 1 18.1167 1 17.0271C1 16.4233 1.41064 15.8972 1.99609 15.751L3.75732 15.3105C4.38867 15.1528 5 15.6301 5 16.2808V18H6L7.79443 11.4214C8.50635 8.81104 10.877 7 13.583 7H34.417C37.123 7 39.4937 8.81104 40.2056 11.4214L42 18H43V16.2808C43 15.6301 43.6113 15.1528 44.2427 15.3105L46.0039 15.751C46.5894 15.8972 47 16.4233 47 17.0271C47 18.1167 46.1167 19 45.0269 19H43L44.2427 20.2427C45.3677 21.3679 46 22.894 46 24.4854V38C46 39.6567 44.6567 41 43 41ZM8.71729 12.2759L7.11572 17.6145C7.05127 17.8293 7.16895 18.0564 7.38184 18.1272C9.11621 18.7053 10.9321 19 12.7598 19H35.3384C37.166 19 38.9819 18.7053 40.7163 18.1272C40.9292 18.0564 41.0469 17.8293 40.9824 17.6145L39.3809 12.2759C38.6196 9.73804 36.2837 8 33.6338 8H14.4644C11.8145 8 9.47852 9.73804 8.71729 12.2759ZM6.83398 20.3215C8.50342 21.96 9.90527 23.2239 12.5005 24.3005C12.7544 24.406 12.855 24.7175 12.7021 24.9465C12.269 25.5964 11.5166 25.9595 10.7383 25.8945L7.98975 25.6655C6.70508 25.5586 5.5 24.9995 4.58838 24.0881C3.96045 23.46 3.87842 22.47 4.39453 21.7473L5.31982 20.4521C5.67676 19.9521 6.39551 19.8911 6.83398 20.3215ZM40.9966 20.3215C39.3271 21.9597 37.9248 23.2239 35.3301 24.3003C35.0757 24.4058 34.9756 24.7173 35.1284 24.9463C35.5615 25.5962 36.3135 25.9595 37.0918 25.8945L39.8408 25.6655C41.1255 25.5583 42.3306 24.9995 43.2422 24.0879C43.8701 23.46 43.9521 22.47 43.436 21.7473L42.5107 20.4521C42.1533 19.9521 41.4351 19.8911 40.9966 20.3215ZM10 32C7.39941 31.5249 6.05859 31.1194 4 30L3.81055 30.7576C3.65283 31.3887 4.13037 32 4.78076 32H10ZM37.7803 32C40.3809 31.5249 41.7217 31.1194 43.7803 30L43.9697 30.7576C44.1274 31.3887 43.6499 32 42.9995 32H37.7803ZM12.707 34.293C12.8945 34.1055 13.1489 34 13.4141 34H34.5859C34.8511 34 35.1055 34.1055 35.293 34.293L36.1465 35.1465C36.4614 35.4614 36.2383 36 35.793 36H12.207C11.7617 36 11.5386 35.4614 11.8535 35.1465L12.707 34.293Z" fill="white"/>
</svg>
