<svg width="48" height="48" viewBox="0 0 48 48" fill="none" xmlns="http://www.w3.org/2000/svg">
<g clip-path="url(#clip0_31_7)">
<g filter="url(#filter0_d_31_7)">
<path d="M4.0669 8.30783L12.263 23.5568C12.412 23.8342 12.412 24.1657 12.263 24.4431L4.0669 39.6921C3.64003 40.4863 4.47045 41.3645 5.31188 41.0087L43.4705 24.8734C44.2524 24.5428 44.2524 23.4571 43.4705 23.1265L5.31188 6.99122C4.47045 6.63542 3.64003 7.51362 4.0669 8.30783Z" fill="#E50019"/>
</g>
<g filter="url(#filter1_d_31_7)">
<path fill-rule="evenodd" clip-rule="evenodd" d="M10.3051 24L2.34717 9.19411C1.06656 6.81149 3.55784 4.1769 6.08214 5.24429L44.2407 21.3796C46.5864 22.3715 46.5864 25.6285 44.2407 26.6204L6.08214 42.7557C3.55785 43.8231 1.06656 41.1885 2.34717 38.8059L10.3051 24ZM12.2628 23.5569L4.06678 8.30785C3.63991 7.51365 4.47034 6.63545 5.31177 6.99125L43.4703 23.1265C44.2522 23.4572 44.2522 24.5428 43.4703 24.8735L5.31177 41.0088C4.47034 41.3646 3.63991 40.4864 4.06678 39.6922L12.2628 24.4431C12.4119 24.1657 12.4119 23.8343 12.2628 23.5569Z" fill="white"/>
</g>
</g>
<defs>
<filter id="filter0_d_31_7" x="-0.0488281" y="4.90979" width="48.1055" height="42.1804" filterUnits="userSpaceOnUse" color-interpolation-filters="sRGB">
<feFlood flood-opacity="0" result="BackgroundImageFix"/>
<feColorMatrix in="SourceAlpha" type="matrix" values="0 0 0 0 0 0 0 0 0 0 0 0 0 0 0 0 0 0 127 0" result="hardAlpha"/>
<feOffset dy="2"/>
<feGaussianBlur stdDeviation="2"/>
<feColorMatrix type="matrix" values="0 0 0 0 0 0 0 0 0 0 0 0 0 0 0 0 0 0 0.5 0"/>
<feBlend mode="normal" in2="BackgroundImageFix" result="effect1_dropShadow_31_7"/>
<feBlend mode="normal" in="SourceGraphic" in2="effect1_dropShadow_31_7" result="shape"/>
</filter>
<filter id="filter1_d_31_7" x="0" y="4" width="48" height="42" filterUnits="userSpaceOnUse" color-interpolation-filters="sRGB">
<feFlood flood-opacity="0" result="BackgroundImageFix"/>
<feColorMatrix in="SourceAlpha" type="matrix" values="0 0 0 0 0 0 0 0 0 0 0 0 0 0 0 0 0 0 127 0" result="hardAlpha"/>
<feOffset dy="1"/>
<feGaussianBlur stdDeviation="1"/>
<feColorMatrix type="matrix" values="0 0 0 0 0 0 0 0 0 0 0 0 0 0 0 0 0 0 0.25 0"/>
<feBlend mode="normal" in2="BackgroundImageFix" result="effect1_dropShadow_31_7"/>
<feBlend mode="normal" in="SourceGraphic" in2="effect1_dropShadow_31_7" result="shape"/>
</filter>
<clipPath id="clip0_31_7">
<rect width="48" height="48" fill="white"/>
</clipPath>
</defs>
</svg>
