<svg width="68" height="55" viewBox="0 0 68 55" fill="none" xmlns="http://www.w3.org/2000/svg">
<g clip-path="url(#clip0_455787_26722)">
<circle cx="33.999" cy="26.957" r="22" stroke="black" stroke-width="4"/>
<path d="M27.0913 36.957V18.057H34.4623C36.1183 18.057 37.5313 18.318 38.7013 18.84C39.8713 19.362 40.7713 20.118 41.4013 21.108C42.0313 22.098 42.3463 23.277 42.3463 24.645C42.3463 26.013 42.0313 27.192 41.4013 28.182C40.7713 29.154 39.8713 29.91 38.7013 30.45C37.5313 30.972 36.1183 31.233 34.4623 31.233H28.5763L29.7913 29.964V36.957H27.0913ZM29.7913 30.234L28.5763 28.884H34.3813C36.1093 28.884 37.4143 28.515 38.2963 27.777C39.1963 27.039 39.6463 25.995 39.6463 24.645C39.6463 23.295 39.1963 22.251 38.2963 21.513C37.4143 20.775 36.1093 20.406 34.3813 20.406H28.5763L29.7913 19.056V30.234Z" fill="#131313"/>
</g>
<path d="M13.0852 2.27167C12.4999 2.78735 11.9285 3.3282 11.3726 3.89424C-1.12419 16.6174 -1.12419 37.2456 11.3726 49.9688C12.1731 50.7838 13.0056 51.5467 13.8658 52.2573M54.6024 2C55.2972 2.59652 55.973 3.22793 56.6274 3.89424C69.1242 16.6174 69.1242 37.2456 56.6274 49.9688C55.7278 50.8847 54.7879 51.7347 53.8136 52.5188" stroke="black" stroke-width="4" stroke-linecap="round" stroke-linejoin="round"/>
<defs>
<clipPath id="clip0_455787_26722">
<rect width="48" height="48" fill="white" transform="translate(9.99902 2.95703)"/>
</clipPath>
</defs>
</svg>
