<svg width="48" height="48" viewBox="0 0 48 48" fill="none" xmlns="http://www.w3.org/2000/svg">
<g opacity="0.4">
<path fill-rule="evenodd" clip-rule="evenodd" d="M26 6C26 4.34326 24.6567 3 23 3C21.3433 3 20 4.34326 20 6V21H5.5C3.84326 21 2.5 22.3433 2.5 24C2.5 25.6567 3.84326 27 5.5 27H20V42C20 43.6567 21.3433 45 23 45C24.6567 45 26 43.6567 26 42V27H40.5C42.1569 27 43.5 25.6567 43.5 24C43.5 22.3433 42.1569 21 40.5 21H26V6Z" fill="white" fill-opacity="0.6"/>
<path fill-rule="evenodd" clip-rule="evenodd" d="M30 34V33.7119C32.1475 32.033 33.7538 29.6941 34.5134 27H26V42C26 43.6567 24.6567 45 23 45C21.3433 45 20 43.6567 20 42V24C20 22.3433 21.3433 21 23 21H34.7667C34.3385 18.7681 33.3395 16.739 31.9275 15.0708L48 24L30 34Z" fill="white"/>
</g>
</svg>
