<svg width="48" height="48" viewBox="0 0 48 48" fill="none" xmlns="http://www.w3.org/2000/svg">
<path fill-rule="evenodd" clip-rule="evenodd" d="M30 22.5C30 26.6421 26.6421 30 22.5 30C18.3579 30 15 26.6421 15 22.5C15 18.3579 18.3579 15 22.5 15C26.6421 15 30 18.3579 30 22.5ZM28.7886 30.9094C27.0356 32.2224 24.8584 33 22.5 33C16.7012 33 12 28.2991 12 22.5C12 16.7009 16.7012 12 22.5 12C28.2988 12 33 16.7009 33 22.5C33 24.8586 32.2227 27.0354 30.9097 28.7883L40.0605 37.9395C40.6465 38.5251 40.6465 39.4749 40.0605 40.0605C39.4751 40.6465 38.5249 40.6465 37.9395 40.0605L28.7886 30.9094Z" fill="black" fill-opacity="0.4"/>
</svg>
