<svg width="48" height="48" viewBox="0 0 48 48" fill="none" xmlns="http://www.w3.org/2000/svg">
<path d="M13.6374 6V6H14.94V6C15.2986 6 15.6424 6.14243 15.896 6.39596C15.896 6.39596 15.896 6.39596 15.896 6.39597C16.8237 7.32369 16.9515 8.78355 16.1991 9.85838C16.1991 9.85839 16.1991 9.85839 16.1991 9.85839L15.9648 10.1931C15.9648 10.1931 15.9648 10.1931 15.9648 10.1931C14.7594 11.9152 14.6231 14.1684 15.6123 16.0231C15.6123 16.0231 15.6123 16.0231 15.6123 16.0231L19.2523 22.8481C19.2523 22.8481 19.2523 22.8481 19.2523 22.8481C20.9237 25.9819 20.5958 29.8054 18.4153 32.6089L15.6383 36.1794C15.3809 36.5102 14.8552 36.3967 14.7574 35.9891L10.1834 16.9308C10.1834 16.9308 10.1834 16.9308 10.1834 16.9308C9.41907 13.7461 9.80307 10.3939 11.2677 7.46452C11.2677 7.46452 11.2677 7.46452 11.2677 7.46452C11.7165 6.56696 12.6339 6 13.6374 6Z" fill="white"/>
<path d="M25.2433 34H34C36.2091 34 38 35.7909 38 38V39C38 41.2091 36.2091 43 34 43H22.8995C21.043 43 19.2625 42.2625 17.9498 40.9498C17.9498 40.9497 17.9498 40.9497 17.9497 40.9497L16.8347 39.8347C16.8347 39.8347 16.8347 39.8347 16.8347 39.8347C16.3978 39.3978 16.4577 38.673 16.9606 38.3139C16.9606 38.3139 16.9606 38.3139 16.9606 38.3139L21.1746 35.3039C22.3618 34.4559 23.7843 34 25.2433 34Z" fill="white"/>
</svg>
