<svg width="48" height="48" viewBox="0 0 48 48" fill="none" xmlns="http://www.w3.org/2000/svg">
<path fill-rule="evenodd" clip-rule="evenodd" d="M31.191 12.9057C32.294 12.8446 33.1383 11.9013 33.0772 10.7983C33.0162 9.69523 32.0728 8.85099 30.9698 8.91203C29.212 9.03801 27.1456 9.90861 25.7574 11.2426C23.6637 13.3368 22.9732 16.3022 23.6861 18.9711L10.9083 31.7489C10.127 32.5302 10.127 33.7963 10.9083 34.5776L13.7369 37.4057C14.5177 38.1869 15.7843 38.1869 16.565 37.4057L29.3424 24.6283C32.0113 25.3412 34.9771 24.6503 37.0714 22.5566C38.4054 21.1684 39.276 19.102 39.4019 17.3442C39.463 16.2411 38.6187 15.2978 37.5157 15.2367C36.4127 15.1757 35.4693 16.0199 35.4083 17.123C35.3765 18.2099 35.0816 18.9428 34.2428 19.7279C32.6807 21.29 30.148 21.29 28.586 19.7279C27.024 18.1659 27.024 15.6332 28.586 14.0712C29.3707 13.2323 30.1041 12.9374 31.191 12.9057Z" fill="white"/>
</svg>
