<svg width="48" height="48" viewBox="0 0 48 48" fill="none" xmlns="http://www.w3.org/2000/svg">
<rect x="6" width="36" height="48" rx="2" fill="white"/>
<path d="M14.6143 5.84C14.3263 5.664 14.0303 5.528 13.7262 5.432C13.4276 5.336 13.1636 5.288 12.9343 5.288C12.6783 5.288 12.4756 5.336 12.3262 5.432C12.1769 5.528 12.1022 5.66133 12.1022 5.832C12.1022 5.98667 12.1529 6.11733 12.2543 6.224C12.3609 6.32533 12.4916 6.41067 12.6463 6.48C12.8063 6.544 13.0222 6.616 13.2943 6.696C13.6729 6.808 13.9822 6.92 14.2222 7.032C14.4676 7.144 14.6756 7.30933 14.8463 7.528C15.0169 7.74667 15.1023 8.03467 15.1023 8.392C15.1023 8.73333 15.0089 9.032 14.8222 9.288C14.6409 9.53867 14.3876 9.73067 14.0622 9.864C13.7422 9.99733 13.3742 10.064 12.9583 10.064C12.5209 10.064 12.0942 9.984 11.6782 9.824C11.2623 9.65867 10.8996 9.44 10.5903 9.168L11.0383 8.256C11.3209 8.51733 11.6382 8.72267 11.9902 8.872C12.3422 9.02133 12.6702 9.096 12.9743 9.096C13.2729 9.096 13.5076 9.04 13.6783 8.928C13.8489 8.81067 13.9343 8.65333 13.9343 8.456C13.9343 8.296 13.8809 8.16533 13.7743 8.064C13.6729 7.95733 13.5422 7.872 13.3823 7.808C13.2222 7.744 13.0036 7.672 12.7262 7.592C12.3476 7.48 12.0382 7.37067 11.7982 7.264C11.5582 7.15733 11.3529 6.99733 11.1823 6.784C11.0116 6.56533 10.9262 6.28 10.9262 5.928C10.9262 5.60267 11.0116 5.32 11.1823 5.08C11.3583 4.83467 11.6036 4.64533 11.9182 4.512C12.2383 4.37867 12.6063 4.312 13.0222 4.312C13.3849 4.312 13.7422 4.36533 14.0942 4.472C14.4516 4.57867 14.7689 4.72267 15.0462 4.904L14.6143 5.84ZM18.4137 4.4C19.1177 4.4 19.6617 4.568 20.0457 4.904C20.435 5.24 20.6297 5.71467 20.6297 6.328C20.6297 6.968 20.435 7.46667 20.0457 7.824C19.6617 8.176 19.1177 8.352 18.4137 8.352H17.1897V10H16.1177V4.4H18.4137ZM18.3577 7.408C18.763 7.408 19.0724 7.32 19.2857 7.144C19.5044 6.968 19.6137 6.70667 19.6137 6.36C19.6137 6.01867 19.5044 5.76267 19.2857 5.592C19.0724 5.42133 18.763 5.336 18.3577 5.336H17.1897V7.408H18.3577ZM21.5161 4.4H25.6201V5.336H22.5881V6.72H25.3081V7.656H22.5881V9.064H25.7161V10H21.5161V4.4ZM26.8052 4.4H30.9092V5.336H27.8772V6.72H30.5972V7.656H27.8772V9.064H31.0052V10H26.8052V4.4ZM34.4223 4.4C34.9822 4.4 35.4836 4.52 35.9262 4.76C36.3689 4.99467 36.7156 5.32533 36.9662 5.752C37.2169 6.17867 37.3422 6.66133 37.3422 7.2C37.3422 7.73867 37.2143 8.22133 36.9583 8.648C36.7076 9.06933 36.3583 9.4 35.9103 9.64C35.4623 9.88 34.9529 10 34.3823 10H32.0943V4.4H34.4223ZM34.4462 9.056C34.7876 9.056 35.0942 8.97867 35.3663 8.824C35.6436 8.664 35.8596 8.44533 36.0142 8.168C36.1689 7.88533 36.2463 7.56533 36.2463 7.208C36.2463 6.85067 36.1663 6.53067 36.0062 6.248C35.8463 5.96 35.6249 5.73867 35.3423 5.584C35.0649 5.424 34.7529 5.344 34.4062 5.344H33.1662V9.056H34.4462ZM13.9653 12.4H15.0373V17.032H17.4533V18H13.9653V12.4ZM18.2935 12.4H19.3655V18H18.2935V12.4ZM20.7388 12.4H21.9628L23.8188 16.008L25.6588 12.4H26.8828V18H25.8988V13.984L24.1548 17.424H23.4668L21.7148 13.984V18H20.7388V12.4ZM28.2622 12.4H29.3342V18H28.2622V12.4ZM30.0835 12.4H34.6515V13.352H32.9075V18H31.8275V13.352H30.0835V12.4Z" fill="black"/>
<path d="M16.9011 26.88C18.3678 26.88 19.5211 27.2133 20.3611 27.88C21.2144 28.5333 21.6411 29.4267 21.6411 30.56C21.6411 31.2 21.4678 31.78 21.1211 32.3C20.7744 32.82 20.2944 33.2267 19.6811 33.52C20.5078 33.8267 21.1544 34.2933 21.6211 34.92C22.1011 35.5467 22.3411 36.2667 22.3411 37.08C22.3411 37.8933 22.1211 38.6067 21.6811 39.22C21.2411 39.8333 20.6078 40.3067 19.7811 40.64C18.9678 40.96 18.0144 41.12 16.9211 41.12C15.8278 41.12 14.8678 40.96 14.0411 40.64C13.2278 40.3067 12.6011 39.84 12.1611 39.24C11.7211 38.64 11.5011 37.9333 11.5011 37.12C11.5011 36.2933 11.7478 35.5667 12.2411 34.94C12.7344 34.3 13.4144 33.8267 14.2811 33.52C13.6278 33.2 13.1144 32.7733 12.7411 32.24C12.3811 31.7067 12.2011 31.1133 12.2011 30.46C12.2011 29.3667 12.6211 28.5 13.4611 27.86C14.3144 27.2067 15.4611 26.88 16.9011 26.88ZM16.9211 28.8C16.1478 28.8 15.5411 28.9667 15.1011 29.3C14.6744 29.6333 14.4611 30.1 14.4611 30.7C14.4611 31.3 14.6744 31.7667 15.1011 32.1C15.5411 32.4333 16.1478 32.6 16.9211 32.6C17.6944 32.6 18.2944 32.4333 18.7211 32.1C19.1478 31.7667 19.3611 31.3 19.3611 30.7C19.3611 30.1 19.1478 29.6333 18.7211 29.3C18.2944 28.9667 17.6944 28.8 16.9211 28.8ZM16.9011 34.68C15.9944 34.68 15.2878 34.8667 14.7811 35.24C14.2744 35.6133 14.0211 36.14 14.0211 36.82C14.0211 37.5133 14.2744 38.0533 14.7811 38.44C15.2878 38.8267 16.0011 39.02 16.9211 39.02C17.8278 39.02 18.5344 38.8333 19.0411 38.46C19.5611 38.0733 19.8211 37.5333 19.8211 36.84C19.8211 36.16 19.5611 35.6333 19.0411 35.26C18.5344 34.8733 17.8211 34.68 16.9011 34.68ZM30.3378 26.88C32.2711 26.88 33.7578 27.4933 34.7978 28.72C35.8378 29.9467 36.3578 31.7067 36.3578 34C36.3578 36.28 35.8378 38.0333 34.7978 39.26C33.7578 40.4867 32.2711 41.1 30.3378 41.1C28.4045 41.1 26.9178 40.4867 25.8778 39.26C24.8378 38.0333 24.3178 36.28 24.3178 34C24.3178 31.7067 24.8378 29.9467 25.8778 28.72C26.9178 27.4933 28.4045 26.88 30.3378 26.88ZM30.3378 29C29.2311 29 28.4111 29.4067 27.8778 30.22C27.3445 31.02 27.0778 32.28 27.0778 34C27.0778 35.7067 27.3445 36.9667 27.8778 37.78C28.4111 38.5933 29.2311 39 30.3378 39C31.4445 39 32.2645 38.5933 32.7978 37.78C33.3311 36.9667 33.5978 35.7067 33.5978 34C33.5978 32.28 33.3311 31.02 32.7978 30.22C32.2645 29.4067 31.4445 29 30.3378 29Z" fill="black"/>
</svg>
