<svg width="48" height="48" viewBox="0 0 48 48" fill="none" xmlns="http://www.w3.org/2000/svg">
<path fill-rule="evenodd" clip-rule="evenodd" d="M9 24C9 32.2842 15.7158 39 24 39C32.2842 39 39 32.2842 39 24C39 15.7158 32.2842 9 24 9C15.7158 9 9 15.7158 9 24ZM21.9224 36.0972C16.7988 35.2236 12.7583 31.1743 11.8975 26.0464C18.5171 26.1367 21.5815 31.5181 21.9224 36.0972ZM11.8022 22.6362H14.7959C15.9697 22.6362 16.9546 22.2573 18.0757 21.8252C19.5591 21.2544 21.2822 20.5908 24 20.5908C26.7183 20.5908 28.4414 21.2544 29.9248 21.8252C31.0464 22.2573 32.0308 22.6362 33.2046 22.6362H36.1982C35.52 16.4995 30.3174 11.7271 24 11.7271C17.6831 11.7271 12.4805 16.4995 11.8022 22.6362ZM36.103 26.0464C29.4839 26.1367 26.4189 31.5181 26.0781 36.0972C31.2017 35.2236 35.2422 31.1738 36.103 26.0464Z" fill="white"/>
</svg>
