<svg width="48" height="48" viewBox="0 0 48 48" fill="none" xmlns="http://www.w3.org/2000/svg">
<path fill-rule="evenodd" clip-rule="evenodd" d="M46 24C46 36.1501 36.1501 46 24 46C11.8499 46 2 36.1501 2 24C2 11.8499 11.8499 2 24 2C36.1501 2 46 11.8499 46 24ZM6.24927 27.0017C15.9578 27.1345 20.4526 35.0271 20.9526 41.7432C13.438 40.4619 7.51172 34.5227 6.24927 27.0017ZM6.10986 22H10.5C12.2219 22 13.666 21.4441 15.3108 20.8108C17.4866 19.9729 20.0134 19 24 19C27.9866 19 30.5134 19.9729 32.6892 20.8108C34.334 21.4441 35.7781 22 37.5 22H41.8901C40.8953 13 33.2651 6 24 6C14.7349 6 7.10474 13 6.10986 22ZM27.0474 41.7432C27.5474 35.0271 32.0422 27.1345 41.7507 27.0017C40.4883 34.5227 34.562 40.4619 27.0474 41.7432Z" fill="#007BE4"/>
</svg>
