<svg width="40" height="40" viewBox="0 0 40 40" fill="none" xmlns="http://www.w3.org/2000/svg">
<path fill-rule="evenodd" clip-rule="evenodd" d="M1.12074 6.23742C7.79119 3.31768 14.3072 2.38953 20 2.43325H20.0008C25.6937 2.38953 32.2109 3.31768 38.8801 6.23742C39.6747 4.79093 40 3.91363 40 3.91363C32.7092 1.01655 25.8808 0.0248706 20.0008 0C14.1205 0.0248706 7.29179 1.01639 1.14441e-05 3.91363C1.14441e-05 3.91363 0.229206 4.62586 1.12074 6.23742ZM14.4015 8.39328L19.9974 40L25.6385 8.38869C30.9366 8.39249 32.617 8.97989 32.8614 11.3777C32.8614 11.3777 36.4409 10.0378 38.244 7.31654C31.2026 4.03926 24.1264 3.8913 24.1264 3.8913L20.0018 8.93665L15.8778 3.89209C15.8778 3.89209 8.80178 4.03989 1.75938 7.31717C3.56407 10.0384 7.14222 11.3783 7.14222 11.3783C7.38513 8.98068 9.06758 8.39328 14.4015 8.39328Z" fill="white"/>
</svg>
