<svg width="48" height="48" viewBox="0 0 48 48" fill="none" xmlns="http://www.w3.org/2000/svg">
<path fill-rule="evenodd" clip-rule="evenodd" d="M14.6826 12.499L7 19.2238L2 19.2236C0.895508 19.2236 0 20.1191 0 21.2236V28.7776C0 29.8823 0.895508 30.7776 2 30.7776L7 30.7778L14.6826 37.5026C15.9756 38.6345 18 37.716 18 35.9975V14.0039C18 12.2856 15.9756 11.3672 14.6826 12.499Z" fill="white"/>
<path fill-rule="evenodd" clip-rule="evenodd" d="M23.2122 13.3841C23.5524 12.949 24.1808 12.8721 24.6159 13.2122C27.8915 15.7729 30 19.7644 30 24.2477C30 28.4802 28.1206 32.2749 25.1542 34.8405C24.7365 35.2018 24.105 35.1561 23.7437 34.7383C23.3824 34.3206 23.4282 33.6891 23.8459 33.3278C26.3917 31.1259 28 27.8752 28 24.2477C28 20.4058 26.1957 16.9859 23.3841 14.7879C22.949 14.4477 22.8721 13.8192 23.2122 13.3841Z" fill="white"/>
<path fill-rule="evenodd" clip-rule="evenodd" d="M30.3001 9.28576C30.6946 8.89922 31.3277 8.90564 31.7142 9.3001C35.6015 13.2671 38 18.7029 38 24.6969C37.9804 30.3544 35.7585 35.6695 32.2379 39.5407C31.8652 39.9482 31.2326 39.9764 30.8251 39.6037C30.4176 39.2309 30.3894 38.5984 30.7621 38.1909C34.0735 34.5923 36.0196 29.9602 36 24.6969C36 19.2472 33.8216 14.3082 30.2858 10.6999C29.8992 10.3054 29.9056 9.6723 30.3001 9.28576Z" fill="white"/>
<path fill-rule="evenodd" clip-rule="evenodd" d="M38.5928 3.25013C39.007 2.88475 39.6389 2.92429 40.0043 3.33844C44.9249 8.93725 47.9812 16.4482 47.9999 24.5C47.9831 32.1281 45.2395 39.2808 40.7737 44.7563C40.4238 45.1837 39.7938 45.2465 39.3664 44.8967C38.9391 44.5469 38.8762 43.9168 39.2261 43.4895C43.5103 38.2759 46.0166 31.7634 45.9999 24.5C46.0185 16.8328 43.2251 9.99107 38.5045 4.66158C38.1391 4.24743 38.1787 3.6155 38.5928 3.25013Z" fill="white" fill-opacity="0.4"/>
</svg>
