<svg width="48" height="48" viewBox="0 0 48 48" fill="none" xmlns="http://www.w3.org/2000/svg">
<path fill-rule="evenodd" clip-rule="evenodd" d="M41 24C41 33.3888 33.3887 41 24 41C14.6113 41 7 33.3888 7 24C7 14.6112 14.6113 7 24 7C33.3887 7 41 14.6112 41 24ZM38 24C38 31.7319 31.7319 38 24 38C16.2681 38 10 31.7319 10 24C10 16.2681 16.2681 10 24 10C31.7319 10 38 16.2681 38 24ZM24 35C30.0752 35 35 30.0751 35 24C35 17.9249 30.0752 13 24 13C17.9248 13 13 17.9249 13 24C13 30.0751 17.9248 35 24 35ZM21 25C23.209 25 25 23.2091 25 21C25 18.7909 23.209 17 21 17C18.791 17 17 18.7909 17 21C17 23.2091 18.791 25 21 25ZM30 28.5C30 29.8807 28.8809 31 27.5 31C26.1191 31 25 29.8807 25 28.5C25 27.1193 26.1191 26 27.5 26C28.8809 26 30 27.1193 30 28.5Z" fill="black" fill-opacity="0.4"/>
</svg>
