<svg width="48" height="48" viewBox="0 0 48 48" fill="none" xmlns="http://www.w3.org/2000/svg">
<path fill-rule="evenodd" clip-rule="evenodd" d="M24 5C20.6865 5 18 7.68628 18 11V25C18 28.3137 20.6865 31 24 31C27.3135 31 30 28.3137 30 25V11C30 7.68628 27.3135 5 24 5ZM16 23C16 21.8954 15.1045 21 14 21C12.8955 21 12 21.8954 12 23V25C12 30.946 16.3247 35.882 22 36.8341V39H16C14.8955 39 14 39.8954 14 41C14 42.1046 14.8955 43 16 43H24H32C33.1045 43 34 42.1046 34 41C34 39.8954 33.1045 39 32 39H26V36.8341C31.6753 35.882 36 30.946 36 25V23C36 21.8954 35.1045 21 34 21C32.8955 21 32 21.8954 32 23V25C32 29.4183 28.4185 33 24 33C19.5815 33 16 29.4183 16 25V23Z" fill="black" fill-opacity="0.4"/>
</svg>
