<svg width="48" height="48" viewBox="0 0 48 48" fill="none" xmlns="http://www.w3.org/2000/svg">
<path fill-rule="evenodd" clip-rule="evenodd" d="M24 10C19.0293 10 15 14.0294 15 19V29C15 33.9706 19.0293 38 24 38C28.9707 38 33 33.9706 33 29V19C33 14.0294 28.9707 10 24 10ZM23.6309 14.3248C22.9775 13.7939 22 14.2589 22 15.101V22L19.207 19.2071C18.8164 18.8166 18.1836 18.8166 17.793 19.2071L17.707 19.2929C17.3164 19.6834 17.3164 20.3166 17.707 20.7071L21 24L17.707 27.2929C17.3164 27.6834 17.3164 28.3166 17.707 28.7071L17.793 28.7929C18.1836 29.1834 18.8164 29.1834 19.207 28.7929L22 26V32.099C22 32.9042 22.9033 33.3792 23.5664 32.923L28.9551 29.2187C29.4873 28.8523 29.5381 28.084 29.0566 27.6514L25 24L29.1309 20.2822C29.5879 19.8713 29.5693 19.15 29.0928 18.7628L23.6309 14.3248ZM25 18V21.5L27 19.5L25 18ZM25 30V26.5L27 28.5L25 30Z" fill="black"/>
</svg>
