<svg width="40" height="40" viewBox="0 0 40 40" fill="none" xmlns="http://www.w3.org/2000/svg">
<path fill-rule="evenodd" clip-rule="evenodd" d="M1.12109 6.23743C7.79102 3.31769 14.3076 2.38953 20 2.43323C25.6934 2.38953 32.2109 3.31769 38.8799 6.23743C39.6748 4.79095 40 3.91364 40 3.91364C32.709 1.01654 25.8809 0.0248413 20.001 0C14.1201 0.0248413 7.29199 1.01636 0 3.91364C0 3.91364 0.229492 4.62585 1.12109 6.23743ZM14.4014 8.39331L19.998 40L25.6387 8.38867C30.9365 8.39252 32.6172 8.97992 32.8613 11.3776C32.8613 11.3776 36.4414 10.0378 38.2441 7.31653C31.2031 4.03925 24.127 3.8913 24.127 3.8913L20.0068 8.94269L15.8779 3.89209C15.8779 3.89209 8.80176 4.03992 1.75977 7.3172C3.56445 10.0384 7.14258 11.3783 7.14258 11.3783C7.38477 8.98065 9.06738 8.39331 14.4014 8.39331Z" fill="black"/>
</svg>
