<svg width="48" height="48" viewBox="0 0 48 48" fill="none" xmlns="http://www.w3.org/2000/svg">
<path fill-rule="evenodd" clip-rule="evenodd" d="M38.0435 36.5H37.3043C36.0797 36.5 35.087 35.5124 35.087 34.2941H12.913C12.913 35.5124 11.9203 36.5 10.6957 36.5H9.95652C8.73189 36.5 7.73913 35.5124 7.73913 34.2941V24.3568C7.73913 23.1868 8.20636 22.0646 9.03805 21.2372L9.95652 20.3235H8.45831C7.65291 20.3235 7 19.674 7 18.8728C7 18.429 7.30362 18.0421 7.73641 17.9345L9.03813 17.6108C9.50463 17.4947 9.95652 17.8457 9.95652 18.3241V19.5882H10.6957L12.0218 14.751C12.548 12.8316 14.3004 11.5 16.3003 11.5H31.6997C33.6996 11.5 35.452 12.8316 35.9782 14.751L37.3043 19.5882H38.0435V18.3241C38.0435 17.8457 38.4954 17.4947 38.9619 17.6108L40.2636 17.9345C40.6964 18.0421 41 18.429 41 18.8728C41 19.674 40.3471 20.3235 39.5417 20.3235H38.0435L38.962 21.2372C39.7936 22.0646 40.2609 23.1868 40.2609 24.3568V34.2941C40.2609 35.5124 39.2681 36.5 38.0435 36.5ZM11.5201 19.3048L12.7039 15.3793C13.2667 13.5132 14.9932 12.2352 16.9517 12.2352H31.1205C33.0789 12.2352 34.8055 13.5132 35.3682 15.3793L36.552 19.3048C36.5996 19.4626 36.5125 19.6296 36.3554 19.6817L36.3553 19.6818C35.0735 20.1068 33.7313 20.3235 32.3802 20.3235H15.6919C14.3409 20.3235 12.9986 20.1068 11.7169 19.6818L11.7168 19.6817C11.5596 19.6296 11.4725 19.4626 11.5201 19.3048ZM32.3742 24.2208C34.2922 23.4292 35.3285 22.4998 36.5624 21.2952C36.8866 20.9787 37.4176 21.0235 37.6817 21.3912L38.3654 22.3435C38.747 22.8749 38.6864 23.6028 38.2223 24.0646C37.5485 24.7348 36.6578 25.1458 35.7082 25.2245L33.6765 25.393C33.1012 25.4407 32.5452 25.1736 32.225 24.6958C32.1122 24.5274 32.1863 24.2984 32.3742 24.2208ZM15.5001 24.2209C13.5821 23.4293 12.5457 22.4999 11.3119 21.2953C10.9876 20.9788 10.4566 21.0236 10.1926 21.3913L9.50885 22.3436C9.1273 22.875 9.18786 23.6029 9.65203 24.0647C10.3258 24.7349 11.2165 25.1459 12.1661 25.2246L14.1978 25.3931C14.7731 25.4407 15.3291 25.1737 15.6493 24.6959C15.7621 24.5275 15.688 24.2985 15.5001 24.2209ZM15.6529 31.5682C15.7915 31.4304 15.9795 31.3529 16.1755 31.3529H31.8241C32.0201 31.3529 32.2081 31.4304 32.3467 31.5682L32.9776 32.1959C33.2104 32.4275 33.0455 32.8235 32.7163 32.8235H15.2833C14.954 32.8235 14.7892 32.4275 15.022 32.1959L15.6529 31.5682Z" fill="black"/>
</svg>
