<svg width="48" height="48" viewBox="0 0 48 48" fill="none" xmlns="http://www.w3.org/2000/svg">
<path fill-rule="evenodd" clip-rule="evenodd" d="M35 24C35 30.0752 30.0752 35 24 35C17.9248 35 13 30.0752 13 24C13 17.9248 17.9248 13 24 13C30.0752 13 35 17.9248 35 24ZM39 24C39 32.2842 32.2842 39 24 39C15.7158 39 9 32.2842 9 24C9 15.7158 15.7158 9 24 9C32.2842 9 39 15.7158 39 24ZM22.5 16C22.5 15.4478 22.9473 15 23.5 15H24.5C25.0527 15 25.5 15.4478 25.5 16V27C25.5 27.5522 25.0527 28 24.5 28H23.5C22.9473 28 22.5 27.5522 22.5 27V16ZM22.5 31C22.5 30.4478 22.9473 30 23.5 30H24.5C25.0527 30 25.5 30.4478 25.5 31V32C25.5 32.5522 25.0527 33 24.5 33H23.5C22.9473 33 22.5 32.5522 22.5 32V31Z" fill="black"/>
</svg>
