<svg width="48" height="48" viewBox="0 0 48 48" fill="none" xmlns="http://www.w3.org/2000/svg">
<path fill-rule="evenodd" clip-rule="evenodd" d="M31.1909 12.9062C32.2938 12.8451 33.1383 11.9015 33.0772 10.7986C33.0161 9.69574 32.0726 8.8512 30.9697 8.9123C29.2118 9.0384 27.1456 9.90879 25.7573 11.2431C23.6635 13.337 22.973 16.3027 23.6857 18.9716L10.9081 31.7492C10.1271 32.5303 10.1271 33.7966 10.9081 34.5777L13.7365 37.4061C14.5176 38.1871 15.7839 38.1871 16.565 37.4061L29.3426 24.6285C32.0115 25.3412 34.9772 24.6507 37.0711 22.5569C38.4054 21.1686 39.2758 19.1024 39.4019 17.3445C39.463 16.2416 38.6185 15.2981 37.5156 15.237C36.4127 15.1759 35.4691 16.0204 35.408 17.1233C35.3765 18.2103 35.0815 18.9434 34.2426 19.7284C32.6805 21.2905 30.1479 21.2905 28.5858 19.7284C27.0237 18.1663 27.0237 15.6337 28.5858 14.0716C29.3708 13.2327 30.1039 12.9377 31.1909 12.9062Z" fill="black"/>
</svg>
