<svg width="167" height="355" viewBox="0 0 167 355" fill="none" xmlns="http://www.w3.org/2000/svg">
<g filter="url(#filter0_d_20_22)">
<path d="M20.4444 38C20.4444 38 36.9443 8 83.4444 8C129.945 8 146.444 38 146.444 38C146.444 38 148.444 49 148.444 73C148.444 97 145.444 103.5 145.444 106V120C145.444 120 155.444 124 156.444 129C157.444 134 156.444 135.5 156.444 135.5L145.444 129C145.444 129 147.444 169 147.444 191C147.444 213 146.444 242.5 146.444 242.5C146.444 242.5 148.444 244.5 148.444 248.5V297.5C148.444 301 145.654 306.462 142.444 312C139.853 320.422 137.924 323.595 133.944 327.5C116.754 340.019 106.65 342.192 83.4444 342C60.2392 341.808 50.1348 340.019 32.9444 327.5C28.9649 323.595 27.0361 320.422 24.4444 312C21.235 306.462 18.4444 301 18.4444 297.5V248.5C18.4444 244.5 20.4444 242.5 20.4444 242.5C20.4444 242.5 19.4444 213 19.4444 191C19.4444 169 21.4444 129 21.4444 129L12.0753 134.536C11.1606 135.077 10.0996 134.727 10.0253 133.668C9.95424 132.653 10.0144 131.15 10.4444 129C11.4444 124 21.4444 120 21.4444 120V106C21.4444 103.5 18.4443 97 18.4444 73C18.4446 49 20.4444 38 20.4444 38Z" fill="url(#paint0_linear_20_22)"/>
<path d="M31.4446 324C27.0695 319 27.9446 309 29.4446 304C30.1112 307.167 30.4446 315 33.9446 320.5C36.8258 325.028 50.4446 333 56.4446 336C49.9446 334 36.9446 330.286 31.4446 324Z" fill="#960000"/>
<path d="M135.444 324C139.819 319 138.944 309 137.444 304C136.777 307.167 136.444 315 132.944 320.5C130.063 325.028 116.444 333 110.444 336C116.944 334 129.944 330.286 135.444 324Z" fill="#960000"/>
<path d="M29.3711 38C31.3711 31.5 42.3711 22 52.3711 22C46.8712 27.5 43.3712 32 39.3711 40C35.3711 48 33.8711 53 31.3711 53C28.8712 53 27.3712 44.5 29.3711 38Z" fill="url(#paint1_linear_20_22)"/>
<path d="M138.444 38C136.444 31.5 125.444 22 115.444 22C120.944 27.5 124.444 32 128.444 40C132.444 48 133.944 53 136.444 53C138.944 53 140.444 44.5 138.444 38Z" fill="url(#paint2_linear_20_22)"/>
<path d="M57.4443 22.04C45.9443 30.04 33.4443 81.5399 33.4443 98.04H133.444C133.444 81.5399 120.944 30.04 109.444 22.04C97.9443 14.04 83.4443 15.04 83.4443 15.04C83.4443 15.04 68.9443 14.04 57.4443 22.04Z" fill="url(#paint3_linear_20_22)" stroke="#DADADA"/>
<path fill-rule="evenodd" clip-rule="evenodd" d="M82.0449 28.9019L83.4438 21L84.854 28.9028C86.1787 28.9019 86.5986 28.7554 86.6597 28.1558C86.6597 28.1558 87.5547 28.4907 88.0054 29.1709C86.2451 29.9902 84.4761 30.0273 84.4761 30.0273L83.4463 28.7646L82.4136 30.0273C82.4136 30.0273 80.645 29.9902 78.8843 29.1709C79.3354 28.4907 80.23 28.1558 80.23 28.1558C80.2905 28.7549 80.7114 28.9019 82.0449 28.9019ZM78.7246 29.4404C80.3921 30.1704 82.021 30.4028 83.4443 30.3916C84.8677 30.4028 86.4971 30.1704 88.1646 29.4404C88.3628 29.8022 88.4443 30.0215 88.4443 30.0215C86.6216 30.7461 84.9146 30.9937 83.4443 31C81.9746 30.9937 80.2671 30.7461 78.4443 30.0215C78.4443 30.0215 78.5015 29.8438 78.7246 29.4404Z" fill="#9E9E9E"/>
<path d="M57.4443 22.04C45.9443 30.04 33.4443 81.5399 33.4443 98.04H133.444C133.444 81.5399 120.944 30.04 109.444 22.04C97.9443 14.04 83.4443 15.04 83.4443 15.04C83.4443 15.04 68.9443 14.04 57.4443 22.04Z" fill="url(#paint4_linear_20_22)" stroke="#DADADA"/>
<path d="M51.5602 41.4642L58.2222 29.9858C61.7742 23.8658 72.1803 20 80.1228 20H86.7935C94.7359 20 105.142 23.8658 108.694 29.9858L115.356 41.4642C117.099 44.467 114.564 48 110.667 48H56.249C52.352 48 49.8174 44.467 51.5602 41.4642Z" fill="#0C0C0C"/>
<path d="M57 46.7476C45.5 52.1426 35 85.8728 35 97H131C131 85.8728 120.5 52.1426 109 46.7476C97.5 41.3526 83 42.027 83 42.027C83 42.027 68.5 41.3526 57 46.7476Z" fill="url(#paint5_linear_20_22)" stroke="#E82127" stroke-width="4"/>
<path d="M57 46.7476C45.5 52.1426 33 86.8728 33 98H133C133 86.8728 120.5 52.1426 109 46.7476C97.5 41.3526 83 42.027 83 42.027C83 42.027 68.5 41.3526 57 46.7476Z" fill="url(#paint6_linear_20_22)" stroke="#DADADA"/>
<path fill-rule="evenodd" clip-rule="evenodd" d="M81.6006 51.3755L82.9995 46.0464L84.4097 51.376C85.7344 51.3755 86.1543 51.2764 86.2153 50.8721C86.2153 50.8721 87.1104 51.0981 87.561 51.5566C85.8008 52.1094 84.0317 52.1343 84.0317 52.1343L83.002 51.2827L81.9692 52.1343C81.9692 52.1343 80.2007 52.1094 78.4399 51.5566C78.8911 51.0981 79.7856 50.8721 79.7856 50.8721C79.8462 51.2764 80.2671 51.3755 81.6006 51.3755ZM78.2803 51.7383C79.9478 52.2305 81.5767 52.3872 83 52.3799C84.4233 52.3872 86.0527 52.2305 87.7202 51.7383C87.9185 51.9824 88 52.1304 88 52.1304C86.1772 52.6187 84.4702 52.7856 83 52.79C81.5303 52.7856 79.8228 52.6187 78 52.1304C78 52.1304 78.0571 52.0103 78.2803 51.7383Z" fill="#9E9E9E"/>
<path d="M83.4443 82C47.4443 82 33.4443 97.5 33.4443 97.5V105.52C33.4443 108.17 33.63 110.796 33.9959 113.421C35.9525 127.454 42.4443 175.137 42.4443 190C42.4443 207.5 48.4443 300.5 48.4443 300.5C50.4443 304.5 54.9443 317.5 83.4443 317.5C111.944 317.5 116.444 304.5 118.444 300.5C118.444 300.5 124.444 207.5 124.444 190C124.444 175.137 130.936 127.454 132.893 113.421C133.259 110.796 133.444 108.17 133.444 105.52V97.5C133.444 97.5 119.444 82 83.4443 82Z" fill="url(#paint7_linear_20_22)"/>
<path d="M26.4446 195C25.9446 133 29.9446 120.5 29.9446 120.5C29.9446 120.5 38.4446 148 39.9446 197C41.4446 246 41.9446 289.5 41.9446 289.5C41.9446 289.5 26.9446 257 26.4446 195Z" fill="#444444"/>
<path d="M140.944 195C141.444 133 137.444 120.5 137.444 120.5C137.444 120.5 128.944 148 127.444 197C125.944 246 125.444 289.5 125.444 289.5C125.444 289.5 140.444 257 140.944 195Z" fill="#444444"/>
</g>
<defs>
<filter id="filter0_d_20_22" x="0" y="0" width="166.889" height="354.011" filterUnits="userSpaceOnUse" color-interpolation-filters="sRGB">
<feFlood flood-opacity="0" result="BackgroundImageFix"/>
<feColorMatrix in="SourceAlpha" type="matrix" values="0 0 0 0 0 0 0 0 0 0 0 0 0 0 0 0 0 0 127 0" result="hardAlpha"/>
<feOffset dy="2"/>
<feGaussianBlur stdDeviation="5"/>
<feColorMatrix type="matrix" values="0 0 0 0 0 0 0 0 0 0 0 0 0 0 0 0 0 0 0.25 0"/>
<feBlend mode="normal" in2="BackgroundImageFix" result="effect1_dropShadow_20_22"/>
<feBlend mode="normal" in="SourceGraphic" in2="effect1_dropShadow_20_22" result="shape"/>
</filter>
<linearGradient id="paint0_linear_20_22" x1="10.4443" y1="137.5" x2="156.444" y2="136.5" gradientUnits="userSpaceOnUse">
<stop stop-color="white"/>
<stop offset="0.486188" stop-color="#DEDEDE"/>
<stop offset="0.994475" stop-color="#DEDEDE"/>
</linearGradient>
<linearGradient id="paint1_linear_20_22" x1="41.3711" y1="24" x2="50.3711" y2="40.5" gradientUnits="userSpaceOnUse">
<stop stop-color="#6E6E6E"/>
<stop offset="0.342541" stop-color="white"/>
<stop offset="0.480663" stop-color="#C9C9C9"/>
<stop offset="0.889503" stop-color="#5D5D5D"/>
</linearGradient>
<linearGradient id="paint2_linear_20_22" x1="126.444" y1="24" x2="117.444" y2="40.5" gradientUnits="userSpaceOnUse">
<stop stop-color="#6E6E6E"/>
<stop offset="0.342541" stop-color="white"/>
<stop offset="0.480663" stop-color="#C9C9C9"/>
<stop offset="0.889503" stop-color="#5D5D5D"/>
</linearGradient>
<linearGradient id="paint3_linear_20_22" x1="124.444" y1="54.54" x2="41.9443" y2="55.04" gradientUnits="userSpaceOnUse">
<stop stop-color="#DADADA"/>
<stop offset="0.331492" stop-color="#F0F0F0"/>
<stop offset="1" stop-color="white"/>
</linearGradient>
<linearGradient id="paint4_linear_20_22" x1="124.444" y1="54.54" x2="41.9443" y2="55.04" gradientUnits="userSpaceOnUse">
<stop stop-color="#222222"/>
<stop offset="0.187845" stop-color="#2E2E2E"/>
<stop offset="0.79558" stop-color="#2E2E2E"/>
<stop offset="1" stop-color="#222222"/>
</linearGradient>
<linearGradient id="paint5_linear_20_22" x1="124" y1="68.6648" x2="41.5036" y2="69.4062" gradientUnits="userSpaceOnUse">
<stop stop-color="#DADADA"/>
<stop offset="0.331492" stop-color="#F0F0F0"/>
<stop offset="1" stop-color="white"/>
</linearGradient>
<linearGradient id="paint6_linear_20_22" x1="124" y1="68.6648" x2="41.5036" y2="69.4062" gradientUnits="userSpaceOnUse">
<stop stop-color="#DADADA"/>
<stop offset="0.331492" stop-color="#F0F0F0"/>
<stop offset="1" stop-color="white"/>
</linearGradient>
<linearGradient id="paint7_linear_20_22" x1="33.4443" y1="82" x2="133.444" y2="82" gradientUnits="userSpaceOnUse">
<stop stop-color="#262626"/>
<stop offset="0.778317" stop-color="#3A3A3A"/>
<stop offset="0.823126" stop-color="#615C5C"/>
<stop offset="0.864312" stop-color="#282828"/>
<stop offset="1" stop-color="#484848"/>
</linearGradient>
</defs>
</svg>
