<svg width="32" height="32" viewBox="0 0 40 40" fill="none" xmlns="http://www.w3.org/2000/svg">
<path fill-rule="evenodd" clip-rule="evenodd" d="M17 3C17 1.34314 18.3428 0 20 0C21.6572 0 23 1.34314 23 3V5.30005C24.915 5.68881 26.6982 6.44247 28.2725 7.48532L29.8994 5.85791C31.0713 4.68634 32.9707 4.68634 34.1426 5.85791C35.3135 7.02948 35.3135 8.92899 34.1426 10.1006L32.5146 11.7279C33.5576 13.3023 34.3115 15.0849 34.7002 17H37C38.6572 17 40 18.3431 40 20C40 21.6569 38.6572 23 37 23H34.7002C34.3115 24.9151 33.5576 26.6978 32.5146 28.2722L34.1426 29.8997C35.3135 31.0713 35.3135 32.9707 34.1426 34.1423C32.9707 35.3139 31.0713 35.3139 29.8994 34.1423L28.2725 32.5148C26.6982 33.5576 24.915 34.3112 23 34.7V37C23 38.6569 21.6572 40 20 40C18.3428 40 17 38.6569 17 37V34.7C15.085 34.3112 13.3027 33.5577 11.7285 32.515L10.1006 34.1424C8.92969 35.3139 7.0293 35.3139 5.8584 34.1424C4.68652 32.9708 4.68652 31.0713 5.8584 29.8997L7.48535 28.2725C6.44238 26.698 5.68848 24.9153 5.2998 23H3C1.34277 23 0 21.6569 0 20C0 18.3431 1.34277 17 3 17H5.2998C5.68848 15.0851 6.44238 13.3026 7.48535 11.7282L5.85742 10.1005C4.68555 8.92892 4.68555 7.02945 5.85742 5.85788C7.0293 4.68631 8.92871 4.68631 10.0996 5.85788L11.7275 7.48547C13.3018 6.44257 15.085 5.68884 17 5.30005V3ZM20 27C23.8662 27 27 23.866 27 20C27 16.134 23.8662 13 20 13C16.1338 13 13 16.134 13 20C13 23.866 16.1338 27 20 27Z" fill="white" fill-opacity="0.4"/>
</svg>
