<svg width="48" height="48" viewBox="0 0 48 48" fill="none" xmlns="http://www.w3.org/2000/svg">
<path fill-rule="evenodd" clip-rule="evenodd" d="M18 16H30C33.8662 16 37 19.1338 37 23V25C37 28.8662 33.8662 32 30 32H18C14.1338 32 11 28.8662 11 25V23C11 19.1338 14.1338 16 18 16ZM8 23C8 17.4771 12.4775 13 18 13H30C35.5225 13 40 17.4771 40 23V25C40 30.5229 35.5225 35 30 35H18C12.4775 35 8 30.5229 8 25V23ZM25 19C22.2383 19 20 21.2388 20 24C20 26.7612 22.2383 29 25 29H28C30.7617 29 33 26.7612 33 24C33 21.2388 30.7617 19 28 19H25Z" fill="white"/>
</svg>
