<svg width="48" height="48" viewBox="0 0 48 48" fill="none" xmlns="http://www.w3.org/2000/svg">
<path fill-rule="evenodd" clip-rule="evenodd" d="M39 24C39 32.2842 32.2842 39 24 39C15.7158 39 9 32.2842 9 24C9 15.7158 15.7158 9 24 9C32.2842 9 39 15.7158 39 24ZM11.8975 26.0464C18.5166 26.1367 21.582 31.5181 21.9229 36.0972C16.7998 35.2236 12.7588 31.1743 11.8975 26.0464ZM11.8027 22.6362H14.7959C15.9697 22.6362 16.9551 22.2573 18.0762 21.8252C19.5596 21.2544 21.2822 20.5908 24 20.5908C26.7188 20.5908 28.4414 21.2544 29.9248 21.8252C31.0459 22.2573 32.0312 22.6362 33.2051 22.6362H36.1982C35.5195 16.4995 30.3174 11.7271 24 11.7271C17.6836 11.7271 12.4814 16.4995 11.8027 22.6362ZM26.0781 36.0972C26.4189 31.5181 29.4844 26.1367 36.1035 26.0464C35.2422 31.1738 31.2021 35.2236 26.0781 36.0972Z" fill="white"/>
</svg>
